<svg width="727" height="678" viewBox="0 0 727 678" fill="none" xmlns="http://www.w3.org/2000/svg">
<g opacity="0.3" filter="url(#filter0_f_4_12)">
<path fill-rule="evenodd" clip-rule="evenodd" d="M584.209 352.001C573.173 386.669 547.914 413.19 525.037 441.462C505.326 465.821 484.32 487.535 459.292 506.373C431.414 527.356 405.122 556.558 370.273 557.946C335.311 559.339 305.951 533.407 277.067 513.634C249.911 495.044 230.575 469.427 207.166 446.286C175.126 414.612 119.833 396.642 113.566 352.001C107.507 308.845 151.489 275.35 178.353 241.061C202.162 210.671 228.738 183.755 261.438 163.262C295.015 142.219 331.082 115.019 370.273 120.785C409.401 126.54 426.038 176.499 462.088 192.779C504.116 211.758 566.755 185.58 594.836 222.192C621.703 257.222 597.604 309.919 584.209 352.001Z" fill="#82FFE8"/>
</g>
<defs>
<filter id="filter0_f_4_12" x="-6.99999" y="0" width="734" height="678" filterUnits="userSpaceOnUse" color-interpolation-filters="sRGB">
<feFlood flood-opacity="0" result="BackgroundImageFix"/>
<feBlend mode="normal" in="SourceGraphic" in2="BackgroundImageFix" result="shape"/>
<feGaussianBlur stdDeviation="60" result="effect1_foregroundBlur_4_12"/>
</filter>
</defs>
</svg>
